<?xml version="1.0" standalone="no"?>
<!DOCTYPE svg PUBLIC "-//W3C//DTD SVG 20010904//EN"
 "http://www.w3.org/TR/2001/REC-SVG-20010904/DTD/svg10.dtd">
<svg version="1.0" xmlns="http://www.w3.org/2000/svg"
 width="512.000000pt" height="512.000000pt" viewBox="0 0 512.000000 512.000000"
 preserveAspectRatio="xMidYMid meet">
<metadata>
Created by potrace 1.11, written by Peter Selinger 2001-2013
</metadata>
<g transform="translate(0.000000,512.000000) scale(0.100000,-0.100000)"
fill="#000000" stroke="none">
<path d="M160 5112 c0 -5 -6 -9 -12 -9 -19 0 -90 -35 -83 -41 2 -3 -11 -20
-30 -39 l-35 -34 0 -2429 c0 -2419 0 -2430 20 -2442 11 -7 20 -18 20 -24 0
-13 54 -63 72 -66 7 -2 16 -7 20 -13 5 -7 823 -11 2412 -13 2373 -2 2405 -2
2450 18 25 10 46 24 46 30 0 6 4 9 9 6 8 -5 15 4 21 29 5 24 22 45 35 45 13 0
15 303 15 2430 0 2070 -2 2430 -14 2430 -13 0 -26 19 -32 50 -3 17 -46 50 -56
44 -4 -3 -8 0 -8 6 0 6 -4 8 -10 5 -6 -3 -10 -1 -10 5 0 6 -4 9 -9 5 -5 -3
-12 -1 -16 5 -8 12 -4805 14 -4805 2z"/>
</g>
</svg>
